<svg id="visual" viewBox="0 0 900 100" width="900" height="100" xmlns="http://www.w3.org/2000/svg" xmlns:xlink="http://www.w3.org/1999/xlink" version="1.1"><path d="M0 52L16.7 50.3C33.3 48.7 66.7 45.3 100 44.3C133.3 43.3 166.7 44.7 200 45.3C233.3 46 266.7 46 300 47.7C333.3 49.3 366.7 52.7 400 53.5C433.3 54.3 466.7 52.7 500 52.3C533.3 52 566.7 53 600 52.7C633.3 52.3 666.7 50.7 700 50.8C733.3 51 766.7 53 800 53.2C833.3 53.3 866.7 51.7 883.3 50.8L900 50L900 0L883.3 0C866.7 0 833.3 0 800 0C766.7 0 733.3 0 700 0C666.7 0 633.3 0 600 0C566.7 0 533.3 0 500 0C466.7 0 433.3 0 400 0C366.7 0 333.3 0 300 0C266.7 0 233.3 0 200 0C166.7 0 133.3 0 100 0C66.7 0 33.3 0 16.7 0L0 0Z" fill="#faf9f6"></path><path d="M0 31L16.7 30.5C33.3 30 66.7 29 100 29C133.3 29 166.7 30 200 32.8C233.3 35.7 266.7 40.3 300 40C333.3 39.7 366.7 34.3 400 33.2C433.3 32 466.7 35 500 35.3C533.3 35.7 566.7 33.3 600 32.2C633.3 31 666.7 31 700 31.3C733.3 31.7 766.7 32.3 800 34.8C833.3 37.3 866.7 41.7 883.3 43.8L900 46L900 0L883.3 0C866.7 0 833.3 0 800 0C766.7 0 733.3 0 700 0C666.7 0 633.3 0 600 0C566.7 0 533.3 0 500 0C466.7 0 433.3 0 400 0C366.7 0 333.3 0 300 0C266.7 0 233.3 0 200 0C166.7 0 133.3 0 100 0C66.7 0 33.3 0 16.7 0L0 0Z" fill="#b5b4b2"></path><path d="M0 33L16.7 33.5C33.3 34 66.7 35 100 33.3C133.3 31.7 166.7 27.3 200 26.7C233.3 26 266.7 29 300 31.3C333.3 33.7 366.7 35.3 400 33.3C433.3 31.3 466.7 25.7 500 24.3C533.3 23 566.7 26 600 26.3C633.3 26.7 666.7 24.3 700 24.5C733.3 24.7 766.7 27.3 800 29C833.3 30.7 866.7 31.3 883.3 31.7L900 32L900 0L883.3 0C866.7 0 833.3 0 800 0C766.7 0 733.3 0 700 0C666.7 0 633.3 0 600 0C566.7 0 533.3 0 500 0C466.7 0 433.3 0 400 0C366.7 0 333.3 0 300 0C266.7 0 233.3 0 200 0C166.7 0 133.3 0 100 0C66.7 0 33.3 0 16.7 0L0 0Z" fill="#757472"></path><path d="M0 17L16.7 18.3C33.3 19.7 66.7 22.3 100 23C133.3 23.7 166.7 22.3 200 22.3C233.3 22.3 266.7 23.7 300 24.3C333.3 25 366.7 25 400 23C433.3 21 466.7 17 500 15.7C533.3 14.3 566.7 15.7 600 16.8C633.3 18 666.7 19 700 19.3C733.3 19.7 766.7 19.3 800 19.3C833.3 19.3 866.7 19.7 883.3 19.8L900 20L900 0L883.3 0C866.7 0 833.3 0 800 0C766.7 0 733.3 0 700 0C666.7 0 633.3 0 600 0C566.7 0 533.3 0 500 0C466.7 0 433.3 0 400 0C366.7 0 333.3 0 300 0C266.7 0 233.3 0 200 0C166.7 0 133.3 0 100 0C66.7 0 33.3 0 16.7 0L0 0Z" fill="#3b3a38"></path><path d="M0 10L16.7 9.2C33.3 8.3 66.7 6.7 100 7C133.3 7.3 166.7 9.7 200 10.3C233.3 11 266.7 10 300 10.7C333.3 11.3 366.7 13.7 400 14.5C433.3 15.3 466.7 14.7 500 14.7C533.3 14.7 566.7 15.3 600 15.5C633.3 15.7 666.7 15.3 700 13.7C733.3 12 766.7 9 800 8.3C833.3 7.7 866.7 9.3 883.3 10.2L900 11L900 0L883.3 0C866.7 0 833.3 0 800 0C766.7 0 733.3 0 700 0C666.7 0 633.3 0 600 0C566.7 0 533.3 0 500 0C466.7 0 433.3 0 400 0C366.7 0 333.3 0 300 0C266.7 0 233.3 0 200 0C166.7 0 133.3 0 100 0C66.7 0 33.3 0 16.7 0L0 0Z" fill="#000000"></path></svg>